<svg xmlns="http://www.w3.org/2000/svg" width="37.716" height="33.306" viewBox="0 0 37.716 33.306">
  <g id="Grupo_10071" data-name="Grupo 10071" transform="translate(-0.419 0.496)">
    <g id="Grupo_9858" data-name="Grupo 9858" transform="matrix(0.995, -0.105, 0.105, 0.995, 0, 2.279)">
      <path id="Caminho_6763" data-name="Caminho 6763" d="M.767.968c-.734,3.787.469,4.423,0,10.053S-.7,20.043.767,21.544s5.852-1.4,10.919-.752,8.635,1.456,9.716,0-.352-2.671-.646-8.954S21.315,2.77,21.4.968s-4.84-.657-7.875,0S1.354-1,.767.968" transform="translate(0 8.267)" fill="#fff" stroke="#fff" stroke-width="1"/>
      <path id="Caminho_6764" data-name="Caminho 6764" d="M.117,10.032C.18,4.541-1.359.251,5.117,0s6.19,9.09,5.447,10.6" transform="translate(4.967 0)" fill="none" stroke="#fff" stroke-width="2"/>
      <rect id="Ret창ngulo_4381" data-name="Ret창ngulo 4381" width="7.377" height="7.377" rx="3.689" transform="translate(7.377 14.754)" fill="#ed8b26"/>
    </g>
    <g id="Grupo_9864" data-name="Grupo 9864" transform="matrix(0.998, 0.07, -0.07, 0.998, 26.73, 3.428)">
      <path id="Caminho_6765" data-name="Caminho 6765" d="M.351,1.56C-.829,3.695,1.283,18.8,2.032,19.139a20.549,20.549,0,0,0,6.774,0c1.272-.41,4.237-16.823,2.67-18.121S1.532-.575.351,1.56Z" transform="translate(0 7.019)" fill="#fff"/>
      <rect id="Ret창ngulo_4380" data-name="Ret창ngulo 4380" width="2.208" height="11.042" rx="1.104" transform="matrix(0.985, 0.174, -0.174, 0.985, 7.859, 0)" fill="#fff"/>
    </g>
  </g>
</svg>
