<svg xmlns="http://www.w3.org/2000/svg" width="13.067" height="13.064" viewBox="0 0 13.067 13.064">
  <g id="Group_1027" data-name="Group 1027" transform="translate(-494.12 -701.051)">
    <path id="Path_2536" data-name="Path 2536" d="M506.117,701.051H495.189a1.071,1.071,0,0,0-1.069,1.07v1.09a.342.342,0,1,0,.683,0v-1.09a.388.388,0,0,1,.386-.386h10.927a.388.388,0,0,1,.386.386v8.743a.388.388,0,0,1-.386.386h-8.742a.335.335,0,0,0-.2.068l-2.368,1.776v-8.241a.342.342,0,1,0-.684,0v8.924a.345.345,0,0,0,.35.339.339.339,0,0,0,.2-.066l2.817-2.117h8.633a1.071,1.071,0,0,0,1.07-1.07V702.12A1.071,1.071,0,0,0,506.117,701.051Z" transform="translate(0 0)" fill="#173a6d"/>
    <path id="Path_2493" data-name="Path 2493" d="M503.8,708.934h-.34c-.047-.019-.411-.207-.411-1.48,0-2.515-1.355-2.89-2.163-2.89s-2.163.375-2.163,2.89c0,1.274-.365,1.461-.412,1.48h-.34a.341.341,0,1,0,0,.683h1.844v.023a1.07,1.07,0,0,0,2.14,0v-.023H503.8a.341.341,0,1,0,0-.683Zm-2.526.705a.389.389,0,0,1-.778,0v-.023h.771A.1.1,0,0,1,501.275,709.64Zm-2.113-.705a3.662,3.662,0,0,0,.245-1.48c0-2.208,1.114-2.208,1.48-2.208s1.479,0,1.479,2.208a3.66,3.66,0,0,0,.246,1.48Z" transform="translate(-0.234 -0.235)" fill="#173a6d"/>
    <path id="Path_2494" data-name="Path 2494" d="M503.438,704.564a.342.342,0,1,0,0,.683.753.753,0,0,1,.751.751.342.342,0,1,0,.683,0A1.435,1.435,0,0,0,503.438,704.564Z" transform="translate(-0.599 -0.235)" fill="#173a6d"/>
    <path id="Path_2495" data-name="Path 2495" d="M503.438,703.007a.342.342,0,1,0,0,.683,2.21,2.21,0,0,1,2.209,2.209.342.342,0,0,0,.683,0A2.894,2.894,0,0,0,503.438,703.007Z" transform="translate(-0.599 -0.131)" fill="#173a6d"/>
    <path id="Path_2496" data-name="Path 2496" d="M497.926,706a.752.752,0,0,1,.75-.751.342.342,0,1,0,0-.683A1.436,1.436,0,0,0,497.242,706a.342.342,0,0,0,.684,0Z" transform="translate(-0.208 -0.235)" fill="#173a6d"/>
    <path id="Path_2497" data-name="Path 2497" d="M498.915,703.343a.34.34,0,0,0-.341-.341,2.893,2.893,0,0,0-2.891,2.89.342.342,0,0,0,.684,0,2.21,2.21,0,0,1,2.209-2.208A.341.341,0,0,0,498.915,703.343Z" transform="translate(-0.104 -0.13)" fill="#173a6d"/>
  </g>
</svg>
