<svg xmlns="http://www.w3.org/2000/svg" width="14.012" height="9.809" viewBox="0 0 14.012 9.809">
  <path id="Path_2519" data-name="Path 2519" d="M6.9,11.13c-1.639,0-4.9.82-4.9,2.452v1.226h9.809V13.583C11.809,11.95,8.544,11.13,6.9,11.13ZM3.639,13.407A6.755,6.755,0,0,1,6.9,12.532a6.755,6.755,0,0,1,3.265.876ZM6.9,9.9A2.452,2.452,0,1,0,4.452,7.452,2.455,2.455,0,0,0,6.9,9.9Zm0-3.5A1.051,1.051,0,1,1,5.853,7.452,1.05,1.05,0,0,1,6.9,6.4Zm4.932,4.771a2.937,2.937,0,0,1,1.373,2.41v1.226h2.8V13.583C16.012,12.167,13.56,11.362,11.837,11.172ZM11.108,9.9a2.452,2.452,0,0,0,0-4.9,2.414,2.414,0,0,0-1.051.245,3.826,3.826,0,0,1,0,4.414A2.414,2.414,0,0,0,11.108,9.9Z" transform="translate(-2 -5)" fill="#173a6d"/>
</svg>
