<svg xmlns="http://www.w3.org/2000/svg" width="12.226" height="12.786" viewBox="0 0 12.226 12.786">
  <g id="Group_1236" data-name="Group 1236" transform="translate(-518.913 -445.333)">
    <g id="Group_1124" data-name="Group 1124" transform="translate(518.913 445.333)">
      <g id="Ellipse_85" data-name="Ellipse 85" transform="translate(0.051)" fill="none" stroke="#fff" stroke-width="0.7">
        <ellipse cx="5.86" cy="6.393" rx="5.86" ry="6.393" stroke="none"/>
        <ellipse cx="5.86" cy="6.393" rx="5.51" ry="6.043" fill="none"/>
      </g>
      <g id="_24px_1_" data-name="24px (1)" transform="translate(0 0.28)">
        <path id="Path_2460" data-name="Path 2460" d="M0,0H12.226V12.226H0Z" fill="none"/>
        <g id="Group_1133" data-name="Group 1133" transform="translate(9.436 3.752) rotate(90)">
          <path id="Path_176" data-name="Path 176" d="M1.4,6.43H.192C.086,6.43,0,6.372,0,6.3V.131C0,.059.086,0,.192,0H1.4" transform="translate(4.82 6.43) rotate(180)" fill="none" stroke="#fff" stroke-miterlimit="10" stroke-width="0.7"/>
          <path id="Path_177" data-name="Path 177" d="M0,0" transform="translate(3.6 3.704)" fill="none" stroke="#fff" stroke-miterlimit="10" stroke-width="0.7"/>
          <g id="Group_249" data-name="Group 249" transform="translate(0 1.783)">
            <line id="Line_58" data-name="Line 58" x1="3.494" transform="translate(0 1.433)" fill="none" stroke="#fff" stroke-miterlimit="10" stroke-width="0.7"/>
            <path id="Path_178" data-name="Path 178" d="M0,2.865l1.209-1.4a.058.058,0,0,0,0-.07L0,0" transform="translate(2.255)" fill="none" stroke="#fff" stroke-miterlimit="10" stroke-width="0.7"/>
          </g>
        </g>
      </g>
    </g>
  </g>
</svg>
