<svg xmlns="http://www.w3.org/2000/svg" width="14.122" height="12.83" viewBox="0 0 14.122 12.83">
  <path id="Path_157" data-name="Path 157" d="M616.5,597.333l1.966,3.8a.278.278,0,0,0,.21.146l4.4.609a.263.263,0,0,1,.154.454l-3.18,2.955a.259.259,0,0,0-.08.235l.751,4.174a.277.277,0,0,1-.405.28l-3.931-1.97a.291.291,0,0,0-.26,0l-3.931,1.97a.277.277,0,0,1-.405-.28l.751-4.174a.258.258,0,0,0-.08-.235l-3.18-2.955a.263.263,0,0,1,.154-.454l4.4-.609a.278.278,0,0,0,.21-.146l1.966-3.8A.286.286,0,0,1,616.5,597.333Z" transform="translate(-609.194 -597.185)" fill="#ffca0e"/>
</svg>
