<svg id="Grupo_9904" data-name="Grupo 9904" xmlns="http://www.w3.org/2000/svg" width="24" height="24" viewBox="0 0 24 24">
  <g id="Grupo_7059" data-name="Grupo 7059" transform="translate(8.901 8.901)">
    <g id="Grupo_7058" data-name="Grupo 7058" transform="translate(0 0)">
      <path id="Caminho_3885" data-name="Caminho 3885" d="M168.147-401.506a3.1,3.1,0,0,0-3.1,3.1,3.1,3.1,0,0,0,3.1,3.1,3.1,3.1,0,0,0,3.1-3.1A3.1,3.1,0,0,0,168.147-401.506Z" transform="translate(-165.048 401.506)" fill="#fff"/>
    </g>
  </g>
  <path id="Caminho_3886" data-name="Caminho 3886" d="M12.872-565.683h-.985a9.945,9.945,0,0,0-2.854-5.905,9.945,9.945,0,0,0-5.905-2.854v-.985A1.129,1.129,0,0,0,2-576.555a1.129,1.129,0,0,0-1.128,1.128v.985a9.945,9.945,0,0,0-5.905,2.854,9.945,9.945,0,0,0-2.854,5.905h-.985A1.129,1.129,0,0,0-10-564.555a1.129,1.129,0,0,0,1.128,1.128h.985a9.945,9.945,0,0,0,2.854,5.906,9.945,9.945,0,0,0,5.905,2.854v.985A1.129,1.129,0,0,0,2-552.555a1.129,1.129,0,0,0,1.128-1.128v-.985a9.945,9.945,0,0,0,5.905-2.854,9.945,9.945,0,0,0,2.854-5.906h.985A1.129,1.129,0,0,0,14-564.555,1.129,1.129,0,0,0,12.872-565.683ZM7.99-564.555a1.129,1.129,0,0,0,1.128,1.128h.495a7.7,7.7,0,0,1-2.174,4.311,7.7,7.7,0,0,1-4.311,2.174v-.495A1.129,1.129,0,0,0,2-558.565a1.129,1.129,0,0,0-1.128,1.128v.495a7.7,7.7,0,0,1-4.311-2.174,7.7,7.7,0,0,1-2.174-4.311h.837a1.129,1.129,0,0,0,1.128-1.128,1.129,1.129,0,0,0-1.128-1.128h-.837a7.7,7.7,0,0,1,2.174-4.311,7.7,7.7,0,0,1,4.311-2.174v.495A1.129,1.129,0,0,0,2-570.545a1.129,1.129,0,0,0,1.128-1.128v-.495a7.7,7.7,0,0,1,4.311,2.174,7.7,7.7,0,0,1,2.174,4.311H9.118A1.129,1.129,0,0,0,7.99-564.555Z" transform="translate(10 576.555)" fill="#fff"/>
</svg>
