<svg xmlns="http://www.w3.org/2000/svg" width="14.002" height="14.002" viewBox="0 0 14.002 14.002">
  <g id="Group_1021" data-name="Group 1021" transform="translate(-971.096 -1015.096)">
    <g id="help" transform="translate(971.096 1015.096)">
      <path id="Path_2474" data-name="Path 2474" d="M14,9.476a4.536,4.536,0,0,0-3.314-4.361A5.346,5.346,0,1,0,.741,8.064L.02,10.673l2.609-.722a5.326,5.326,0,0,0,2.485.736,4.527,4.527,0,0,0,6.664,2.685l2.2.609-.609-2.2A4.51,4.51,0,0,0,14,9.476ZM2.758,9.064,1.2,9.5l.432-1.562-.1-.154A4.524,4.524,0,1,1,2.912,9.163Zm10.047,3.741-1.159-.321-.155.1a3.707,3.707,0,0,1-5.529-1.928,5.356,5.356,0,0,0,4.694-4.694,3.707,3.707,0,0,1,1.928,5.529l-.1.155Zm0,0" fill="#173a6d"/>
      <path id="Path_2475" data-name="Path 2475" d="M180.5,271h.82v.82h-.82Zm0,0" transform="translate(-175.564 -263.589)" fill="#173a6d"/>
      <path id="Path_2476" data-name="Path 2476" d="M137.961,91.641a.812.812,0,0,1-.267.606l-.964.882v1h.82v-.64l.7-.638a1.641,1.641,0,1,0-2.748-1.211h.82a.82.82,0,1,1,1.641,0Zm0,0" transform="translate(-131.794 -87.539)" fill="#173a6d"/>
    </g>
  </g>
</svg>
