<svg xmlns="http://www.w3.org/2000/svg" width="20" height="20" viewBox="0 0 20 20">
  <g id="Grupo_8710" data-name="Grupo 8710" transform="translate(1 1)">
    <circle id="Elipse_35" data-name="Elipse 35" cx="9" cy="9" r="9" fill="#fff" stroke="#173a6d" stroke-width="2"/>
    <path id="Caminho_2190" data-name="Caminho 2190" d="M4.393,8.693a4.663,4.663,0,0,1-2.336,2.273c-.429.094-.829-.154-.812-1.443L1.268,5.5c0-.385-.035-.526-.135-.506a3.87,3.87,0,0,0-.823.76L0,5.388a5.643,5.643,0,0,1,2.454-2.28c.477-.1.7.418.681,1.537L3.062,8.6c-.014.469.083.583.18.562a2.474,2.474,0,0,0,.8-.79ZM2.9.758A1.167,1.167,0,0,1,1.991,2.2.869.869,0,0,1,.916,1.5,1.188,1.188,0,0,1,1.8.028.894.894,0,0,1,2.9.758Z" transform="translate(6.867 3.706)" fill="#173a6d"/>
  </g>
</svg>
