<svg id="Group_51" data-name="Group 51" xmlns="http://www.w3.org/2000/svg" width="20.126" height="20" viewBox="0 0 20.126 20">
  <g id="Group_53" data-name="Group 53">
    <g id="Group_50" data-name="Group 50">
      <path id="Path_15" data-name="Path 15" d="M63.135,104.125a2.734,2.734,0,0,0,2.205-1.088H60.93A2.737,2.737,0,0,0,63.135,104.125Z" transform="translate(-53.073 -84.125)" fill="#fff"/>
      <path id="Path_16" data-name="Path 16" d="M74.054,104.077l-3.3-5.127V95.029a6.86,6.86,0,0,0-5.468-6.717V87.6a1.276,1.276,0,0,0-1.2-1.293,1.242,1.242,0,0,0-1.28,1.241v.711a6.86,6.86,0,0,0-5.766,6.77V98.95l-3.012,5.138a.312.312,0,0,0,.269.47h7.986c-.012,0,2.776.008,3.53,0h7.984A.313.313,0,0,0,74.054,104.077ZM64.764,88.24H63.319v-.6a.724.724,0,1,1,1.446,0Zm4.4,6.431h-.017a.414.414,0,0,1-.417-.4,3.91,3.91,0,0,0-2.7-3.523.418.418,0,1,1,.307-.777,4.663,4.663,0,0,1,3.242,4.274A.417.417,0,0,1,69.16,94.671Z" transform="translate(-53.979 -86.306)" fill="#fff"/>
    </g>
  </g>
</svg>
