<svg xmlns="http://www.w3.org/2000/svg" width="12.586" height="12.585" viewBox="0 0 12.586 12.585">
  <g id="Group_371" data-name="Group 371" transform="translate(0.4 0.4)">
    <path id="Path_208" data-name="Path 208" d="M423.623,822.979a5.888,5.888,0,1,0-1.088-3.4A5.889,5.889,0,0,0,423.623,822.979Z" transform="translate(-422.535 -813.682)" fill="none" stroke="#fff" stroke-miterlimit="10" stroke-width="0.8"/>
    <path id="Path_209" data-name="Path 209" d="M435.779,833.28l4.2-4.746a.4.4,0,0,0,0-.537h0a.4.4,0,0,0-.6,0l-3.605,4a.4.4,0,0,1-.6,0l-1.637-1.822a.4.4,0,0,0-.584-.016l-.022.022a.4.4,0,0,0-.017.552l2.257,2.546A.4.4,0,0,0,435.779,833.28Z" transform="translate(-430.558 -824.747)" fill="#fff" stroke="#fff" stroke-width="0.5"/>
  </g>
</svg>
