<svg xmlns="http://www.w3.org/2000/svg" width="14.012" height="14.012" viewBox="0 0 14.012 14.012">
  <g id="settings" transform="translate(0 -0.001)">
    <g id="Group_969" data-name="Group 969" transform="translate(0 0.001)">
      <path id="Path_2470" data-name="Path 2470" d="M13.3,5.536l-.984-.167a5.553,5.553,0,0,0-.4-.954L12.5,3.6A.863.863,0,0,0,12.4,2.489l-.872-.872a.859.859,0,0,0-.612-.255.851.851,0,0,0-.5.161L9.6,2.1A5.5,5.5,0,0,0,8.615,1.7L8.451.724A.865.865,0,0,0,7.6,0H6.364a.865.865,0,0,0-.855.723l-.17,1a5.417,5.417,0,0,0-.951.4l-.8-.58a.865.865,0,0,0-1.115.094l-.875.872A.866.866,0,0,0,1.5,3.622l.585.823a5.424,5.424,0,0,0-.389.957l-.972.164A.865.865,0,0,0,0,6.42V7.653a.865.865,0,0,0,.723.855l1,.17a5.417,5.417,0,0,0,.4.951l-.577.8a.863.863,0,0,0,.094,1.115l.872.872a.859.859,0,0,0,.612.255.851.851,0,0,0,.5-.161l.823-.585a5.538,5.538,0,0,0,.925.381l.164.984a.865.865,0,0,0,.855.723H7.622a.865.865,0,0,0,.855-.723l.167-.984a5.554,5.554,0,0,0,.954-.4l.811.58a.859.859,0,0,0,.5.161h0a.859.859,0,0,0,.612-.255l.872-.872a.866.866,0,0,0,.094-1.115l-.58-.814a5.514,5.514,0,0,0,.4-.954l.984-.164a.865.865,0,0,0,.723-.855V6.391A.854.854,0,0,0,13.3,5.536Zm-.067,2.087a.076.076,0,0,1-.064.076l-1.229.2a.393.393,0,0,0-.316.29,4.686,4.686,0,0,1-.509,1.226.4.4,0,0,0,.018.43l.723,1.019a.08.08,0,0,1-.009.1l-.872.872a.074.074,0,0,1-.056.023.072.072,0,0,1-.044-.015l-1.016-.723a.4.4,0,0,0-.43-.018,4.686,4.686,0,0,1-1.226.509.389.389,0,0,0-.29.316L7.7,13.164a.076.076,0,0,1-.076.064H6.39a.076.076,0,0,1-.076-.064l-.2-1.229a.393.393,0,0,0-.29-.316,4.866,4.866,0,0,1-1.2-.492.405.405,0,0,0-.2-.053.385.385,0,0,0-.228.073l-1.025.729a.087.087,0,0,1-.044.015.078.078,0,0,1-.056-.023L2.2,11a.079.079,0,0,1-.009-.1l.72-1.01a.4.4,0,0,0,.018-.433,4.642,4.642,0,0,1-.515-1.224.4.4,0,0,0-.316-.29L.855,7.729A.076.076,0,0,1,.79,7.653V6.42a.076.076,0,0,1,.064-.076l1.221-.2a.4.4,0,0,0,.319-.293,4.681,4.681,0,0,1,.5-1.229.391.391,0,0,0-.02-.427L2.146,3.165a.08.08,0,0,1,.009-.1l.872-.872a.074.074,0,0,1,.056-.023.072.072,0,0,1,.044.015l1.01.72a.4.4,0,0,0,.433.018,4.642,4.642,0,0,1,1.224-.515.4.4,0,0,0,.29-.316L6.293.853A.076.076,0,0,1,6.369.788H7.6a.076.076,0,0,1,.076.064l.2,1.221a.4.4,0,0,0,.293.319,4.751,4.751,0,0,1,1.256.515.4.4,0,0,0,.43-.018l1.01-.726a.087.087,0,0,1,.044-.015.078.078,0,0,1,.056.023l.872.872a.079.079,0,0,1,.009.1L11.129,4.16a.4.4,0,0,0-.018.43,4.686,4.686,0,0,1,.509,1.226.389.389,0,0,0,.316.29l1.229.208a.076.076,0,0,1,.064.076V7.623Z" transform="translate(0 -0.001)" fill="#173a6d"/>
      <path id="Path_2471" data-name="Path 2471" d="M139.124,136a3.024,3.024,0,1,0,3.024,3.024A3.026,3.026,0,0,0,139.124,136Zm0,5.257a2.233,2.233,0,1,1,2.233-2.233A2.235,2.235,0,0,1,139.124,141.258Z" transform="translate(-132.116 -132.02)" fill="#173a6d"/>
    </g>
  </g>
</svg>
