<svg xmlns="http://www.w3.org/2000/svg" width="13.996" height="14" viewBox="0 0 13.996 14">
  <g id="hand" transform="translate(-0.501)">
    <path id="Path_2486" data-name="Path 2486" d="M219.192,330.661a.274.274,0,1,0-.387,0A.274.274,0,0,0,219.192,330.661Zm0,0" transform="translate(-212.257 -321.165)" fill="#173a6d"/>
    <path id="Path_2487" data-name="Path 2487" d="M188.449,3.011A3.011,3.011,0,1,0,191.46,0,3.014,3.014,0,0,0,188.449,3.011Zm5.474,0A2.463,2.463,0,1,1,191.46.547,2.466,2.466,0,0,1,193.923,3.011Zm0,0" transform="translate(-182.814)" fill="#173a6d"/>
    <path id="Path_2488" data-name="Path 2488" d="M3.65,220.443a.273.273,0,0,0,.386,0l1.325-1.307a.828.828,0,0,0,.195-.849l.285-.275a.815.815,0,0,1,.569-.23h3.634a2.446,2.446,0,0,0,1.716-.7c.019-.019-.144.174,2.479-2.965a1.094,1.094,0,0,0-1.664-1.421l-1.613,1.66a1.1,1.1,0,0,0-.85-.407H7.064a3.523,3.523,0,0,0-1.369-.274,3.381,3.381,0,0,0-3.083,1.75.816.816,0,0,0-.731.227l-1.3,1.306a.274.274,0,0,0,0,.386Zm2.045-6.218a2.981,2.981,0,0,1,1.2.251.272.272,0,0,0,.11.023h3.1a.547.547,0,0,1,0,1.095H7.882a.274.274,0,0,0,0,.547h2.23A1.093,1.093,0,0,0,11.2,214.9c1.56-1.606,1.78-1.832,1.79-1.843a.547.547,0,1,1,.835.707L11.369,216.7a1.9,1.9,0,0,1-1.325.534H6.41a1.358,1.358,0,0,0-.949.384l-.232.224L3.087,215.7A2.822,2.822,0,0,1,5.695,214.225Zm-3.427,1.816A.272.272,0,0,1,2.607,216c.047.029-.089-.095,2.368,2.361a.274.274,0,0,1,0,.386l-1.13,1.115-2.686-2.71Zm0,0" transform="translate(0 -206.524)" fill="#173a6d"/>
    <path id="Path_2489" data-name="Path 2489" d="M266.352,40.262v.321a.821.821,0,0,0,.274,1.6.274.274,0,0,1,0,.547.5.5,0,0,1-.355-.207.274.274,0,1,0-.419.352,1.135,1.135,0,0,0,.5.356v.319a.274.274,0,1,0,.547,0v-.321a.821.821,0,0,0-.274-1.6.274.274,0,0,1,0-.547.439.439,0,0,1,.3.143.274.274,0,0,0,.381-.393,1.057,1.057,0,0,0-.4-.252v-.319a.274.274,0,1,0-.547,0Zm0,0" transform="translate(-258.033 -38.893)" fill="#173a6d"/>
  </g>
</svg>
