<svg xmlns="http://www.w3.org/2000/svg" width="12.416" height="12.415" viewBox="0 0 12.416 12.415">
  <g id="Group_463" data-name="Group 463" transform="translate(0.4 0.4)">
    <path id="Path_206" data-name="Path 206" d="M423.607,745.045a5.8,5.8,0,1,0-1.072-3.355A5.8,5.8,0,0,0,423.607,745.045Z" transform="translate(-422.535 -735.882)" fill="none" stroke="#fff" stroke-miterlimit="10" stroke-width="0.8"/>
    <path id="Path_207" data-name="Path 207" d="M441.437,749.014a.346.346,0,0,0-.49,0l-2.393,2.392-2.393-2.393a.347.347,0,0,0-.491.49l2.393,2.393-2.393,2.393a.347.347,0,0,0,.49.49l2.393-2.393,2.393,2.393a.347.347,0,0,0,.49-.49l-2.392-2.393,2.393-2.392A.347.347,0,0,0,441.437,749.014Z" transform="translate(-432.745 -746.089)" fill="#fff" stroke="#fff" stroke-width="0.5"/>
  </g>
</svg>
