<svg xmlns="http://www.w3.org/2000/svg" width="15" height="15" viewBox="0 0 15 15">
  <g id="Group_1239" data-name="Group 1239" transform="translate(-1092 -318)">
    <g id="Group_1080" data-name="Group 1080" transform="translate(400.007 -494.243)">
      <path id="pause_circle_outline-24px" data-name="pause circle outline-24px" d="M696.493,819.743a.752.752,0,0,0,.75.75h4.5a.75.75,0,0,0,0-1.5h-4.5A.752.752,0,0,0,696.493,819.743Zm3-7.5a7.5,7.5,0,1,0,7.5,7.5A7.5,7.5,0,0,0,699.493,812.243Zm0,13.5a6,6,0,1,1,6-6A6,6,0,0,1,699.493,825.743Z" fill="#173a6d"/>
    </g>
  </g>
</svg>
