<svg xmlns="http://www.w3.org/2000/svg" width="10.923" height="12.141" viewBox="0 0 10.923 12.141">
  <g id="Group_143" data-name="Group 143" transform="translate(0)">
    <path id="Path_23" data-name="Path 23" d="M97.668,137.462a.289.289,0,0,0,.184-.066l1.184-.962a.29.29,0,0,0,.042-.409L96.1,132.364a4.389,4.389,0,1,0-3.947,1.709,4.264,4.264,0,0,0,.461.024,4.362,4.362,0,0,0,1.846-.409l2.978,3.666A.288.288,0,0,0,97.668,137.462Zm-5.355-4.887a2.88,2.88,0,1,1,2.114-.629A2.865,2.865,0,0,1,92.313,132.575Z" transform="translate(-88.221 -125.322)" fill="#949494"/>
  </g>
</svg>
