<svg xmlns="http://www.w3.org/2000/svg" width="82.158" height="98.928" viewBox="0 0 82.158 98.928">
  <g id="Group_1238" data-name="Group 1238" transform="translate(-305 -2359)">
    <g id="quality" transform="translate(265.162 2359)">
      <path id="Path_2620" data-name="Path 2620" d="M121.876,88.063l-13.1-31.619a1.579,1.579,0,0,0-2.917,1.208L117.7,86.236l-10.8-3.129a1.578,1.578,0,0,0-1.822.755l-5.424,9.849L86.952,63.04A31.833,31.833,0,1,0,55.4,50.78L39.958,88.063a1.579,1.579,0,0,0,1.9,2.12L54.6,86.491,61,98.111a1.579,1.579,0,0,0,1.382.817l.088,0a1.579,1.579,0,0,0,1.371-.972L76.075,68.411A1.579,1.579,0,0,0,73.158,67.2L62.178,93.711l-5.424-9.849a1.579,1.579,0,0,0-1.822-.755l-10.8,3.129L57.687,53.512a31.724,31.724,0,0,0,23.23,10.1c.945,0,1.88-.044,2.8-.125L98,97.954a1.578,1.578,0,0,0,1.371.972l.088,0a1.578,1.578,0,0,0,1.382-.817l6.4-11.62,12.741,3.692a1.579,1.579,0,0,0,1.9-2.12ZM52.266,31.808A28.651,28.651,0,1,1,80.917,60.459,28.684,28.684,0,0,1,52.266,31.808Z" transform="translate(0)" fill="#006d48"/>
      <path id="Path_2621" data-name="Path 2621" d="M184.532,73.252a1.579,1.579,0,0,0-1.24-1.069L172.669,70.4l-4.978-9.552a1.579,1.579,0,0,0-2.8,0L159.913,70.4l-10.622,1.783a1.579,1.579,0,0,0-.865,2.663l7.546,7.686-1.587,10.654a1.579,1.579,0,0,0,2.265,1.646l9.642-4.8,9.642,4.8a1.579,1.579,0,0,0,2.265-1.646l-1.587-10.654,7.546-7.686A1.579,1.579,0,0,0,184.532,73.252Zm-10.724,7.629a1.578,1.578,0,0,0-.435,1.338l1.257,8.435L167,86.853a1.578,1.578,0,0,0-1.408,0l-7.634,3.8,1.257-8.435a1.578,1.578,0,0,0-.435-1.338L152.8,74.8l8.41-1.412a1.578,1.578,0,0,0,1.139-.827l3.941-7.563,3.941,7.563a1.579,1.579,0,0,0,1.139.827l8.411,1.412Z" transform="translate(-85.374 -47.371)" fill="#006d48"/>
      <path id="Path_2622" data-name="Path 2622" d="M163.289,57.086a1.578,1.578,0,0,0-1.772,1.358,22.337,22.337,0,1,1,0-5.9,1.579,1.579,0,1,0,3.13-.415,25.493,25.493,0,1,0,0,6.729A1.579,1.579,0,0,0,163.289,57.086Z" transform="translate(-58.458 -23.685)" fill="#006d48"/>
    </g>
  </g>
</svg>
