<svg xmlns="http://www.w3.org/2000/svg" width="16.665" height="17.272" viewBox="0 0 16.665 17.272">
  <g id="Grupo_9197" data-name="Grupo 9197" transform="translate(0.75 0.75)">
    <g id="Grupo_932" data-name="Grupo 932" transform="translate(0 0)">
      <g id="Grupo_931" data-name="Grupo 931">
        <g id="Grupo_930" data-name="Grupo 930">
          <g id="Grupo_924" data-name="Grupo 924" transform="translate(1.751 4.402)">
            <path id="Caminho_2453" data-name="Caminho 2453" d="M982.817,870.133l-.476,10.213a.92.92,0,0,1-.95.814H973.1a.921.921,0,0,1-.95-.814l-.475-10.213a.125.125,0,0,0-.135-.111.122.122,0,0,0-.124.12l.475,10.213a1.168,1.168,0,0,0,1.209,1.037h8.293a1.167,1.167,0,0,0,1.209-1.037l.476-10.213a.122.122,0,0,0-.124-.12A.125.125,0,0,0,982.817,870.133Z" transform="translate(-971.414 -870.022)" fill="#173a6d" stroke="#173a6d" stroke-width="1.5"/>
          </g>
          <g id="Grupo_928" data-name="Grupo 928" transform="translate(0 2.194)">
            <path id="Caminho_2457" data-name="Caminho 2457" d="M969.339,866.6h14.868a.141.141,0,1,0,0-.282H969.339a.141.141,0,1,0,0,.282Z" transform="translate(-969.19 -866.314)" fill="#173a6d" stroke="#173a6d" stroke-width="1.5"/>
          </g>
          <g id="Grupo_929" data-name="Grupo 929" transform="translate(4.629)">
            <path id="Caminho_2458" data-name="Caminho 2458" d="M980.6,865l.3-1.124c.123-.459.506-.844.837-.844h3.1c.333,0,.714.383.837.844l.3,1.124.263-.156-.3-1.123c-.167-.62-.651-1.109-1.1-1.109h-3.1c-.446,0-.933.491-1.1,1.109l-.3,1.123Z" transform="translate(-980.337 -862.607)" fill="#173a6d" stroke="#173a6d" stroke-linecap="round" stroke-linejoin="round" stroke-width="1.5"/>
          </g>
        </g>
      </g>
    </g>
  </g>
</svg>
