<svg xmlns="http://www.w3.org/2000/svg" width="14.237" height="12.787" viewBox="0 0 14.237 12.787">
  <g id="Group_1022" data-name="Group 1022" transform="translate(-978.965 -642.803)">
    <g id="Group_971" data-name="Group 971" transform="translate(962.965 578.803)">
      <path id="Path_2477" data-name="Path 2477" d="M24.288,261.209h-.474v-2.321a.237.237,0,1,0-.474,0v2.321H17.184v-4.736h1.97a.237.237,0,1,0,0-.474H16.947a.237.237,0,0,0-.237.237v4.973h-.474a.237.237,0,0,0-.237.237v.474a1.184,1.184,0,0,0,1.184,1.184h6.157a1.184,1.184,0,0,0,1.184-1.184v-.474A.237.237,0,0,0,24.288,261.209Zm-.237.71a.71.71,0,0,1-.71.71h-.474v-.237a.237.237,0,0,0-.474,0v.237H18.131v-.237a.237.237,0,0,0-.474,0v.237h-.474a.71.71,0,0,1-.71-.71v-.237h7.577Z" transform="translate(0 -186.317)" fill="#173a6d"/>
      <path id="Path_2478" data-name="Path 2478" d="M394.184,96.474h.474a.237.237,0,1,0,0-.474h-.474a.71.71,0,0,0-.71.71v.237h-.237a.237.237,0,1,0,0,.474h.237v.71a.237.237,0,1,0,.474,0v-.71h.237a.237.237,0,0,0,0-.474h-.237V96.71A.237.237,0,0,1,394.184,96.474Z" transform="translate(-365.841 -31.053)" fill="#173a6d"/>
      <path id="Path_2479" data-name="Path 2479" d="M356.552,64H353.71a.71.71,0,0,0-.71.71v.474a.237.237,0,1,0,.474,0V64.71a.237.237,0,0,1,.237-.237h2.842a.237.237,0,0,1,.237.237v2.842a.237.237,0,0,1-.237.237H353.71a.237.237,0,0,1-.237-.237V66.131a.237.237,0,1,0-.474,0v1.421a.71.71,0,0,0,.71.71h2.842a.71.71,0,0,0,.71-.71V64.71A.71.71,0,0,0,356.552,64Z" transform="translate(-327.025)" fill="#173a6d"/>
      <path id="Path_2480" data-name="Path 2480" d="M393,352.947a.947.947,0,1,0,.947-.947A.947.947,0,0,0,393,352.947Zm1.421,0a.474.474,0,1,1-.474-.474A.474.474,0,0,1,394.421,352.947Z" transform="translate(-365.841 -279.475)" fill="#173a6d"/>
      <path id="Path_2481" data-name="Path 2481" d="M356.552,312H353.71a.71.71,0,0,0-.71.71v2.842a.71.71,0,0,0,.71.71h2.842a.71.71,0,0,0,.71-.71v-.474a.237.237,0,0,0-.474,0v.474a.237.237,0,0,1-.237.237H353.71a.237.237,0,0,1-.237-.237V312.71a.237.237,0,0,1,.237-.237h2.842a.237.237,0,0,1,.237.237v1.421a.237.237,0,0,0,.474,0V312.71A.71.71,0,0,0,356.552,312Z" transform="translate(-327.025 -240.659)" fill="#173a6d"/>
      <path id="Path_2482" data-name="Path 2482" d="M287.218,187.491a.185.185,0,0,0,.156-.053l.651-.654a.185.185,0,0,0-.262-.26l-.651.654a.185.185,0,0,0,.105.313Z" transform="translate(-263.036 -118.844)" fill="#173a6d"/>
      <path id="Path_2483" data-name="Path 2483" d="M302.138,221.515a.184.184,0,0,0,.251.072l.808-.446a.185.185,0,1,0-.178-.323l-.808.446a.184.184,0,0,0-.072.251Z" transform="translate(-277.646 -152.154)" fill="#173a6d"/>
      <path id="Path_2484" data-name="Path 2484" d="M317.856,261.347a.185.185,0,0,0-.191-.177h-.007l-.939.055a.185.185,0,1,0-.015.371l.037.005.939-.055a.185.185,0,0,0,.177-.191Z" transform="translate(-291.63 -191.333)" fill="#173a6d"/>
      <path id="Path_2485" data-name="Path 2485" d="M105.974,217.976a.185.185,0,1,0-.344.138l.61,1.507-3.077.686-.013,0-.015,0-.514.207-.342.138a.368.368,0,0,1-.48-.2l-.277-.684a.369.369,0,0,1,.2-.463l.684-.277.346.855a.185.185,0,1,0,.344-.138l-.357-.881,2.559-1.57.057.14a.185.185,0,0,0,.344-.138l-.138-.342a.187.187,0,0,0-.269-.088l-2.854,1.75-.841.34a.738.738,0,0,0-.452.781l-.2.079a.553.553,0,0,0,.131,1.062.564.564,0,0,0,.284-.035l.2-.079a.716.716,0,0,0,.293.235.7.7,0,0,0,.188.052.727.727,0,0,0,.379-.047l.172-.069.277.685a.553.553,0,1,0,1.025-.415h0l-.251-.626,2.885-.644a.185.185,0,0,0,.132-.248Zm-4.754,2.518a.184.184,0,1,1-.138-.342l.172-.069.138.342Zm2.333.849a.184.184,0,0,1-.342.138l-.277-.685.328-.131.015,0Z" transform="translate(-82.099 -148.311)" fill="#173a6d"/>
    </g>
  </g>
</svg>
