<svg id="ticket" xmlns="http://www.w3.org/2000/svg" width="14.001" height="14.001" viewBox="0 0 14.001 14.001">
  <path id="Path_182" data-name="Path 182" d="M121.493,197.385a.275.275,0,1,0-.194-.08A.277.277,0,0,0,121.493,197.385Zm0,0" transform="translate(-117.905 -191.454)" fill="#173a6d"/>
  <path id="Path_183" data-name="Path 183" d="M257.859,200.744a.275.275,0,1,0,.08.194A.277.277,0,0,0,257.859,200.744Zm0,0" transform="translate(-250.353 -195.178)" fill="#173a6d"/>
  <path id="Path_184" data-name="Path 184" d="M292.665,166.213a.274.274,0,1,0-.194-.08A.277.277,0,0,0,292.665,166.213Zm0,0" transform="translate(-284.396 -161.135)" fill="#173a6d"/>
  <path id="Path_185" data-name="Path 185" d="M13.18,6.727h-.763l1.343-1.343a.82.82,0,0,0,0-1.16L12.542,3.005a.274.274,0,0,0-.387,0A.82.82,0,0,1,11,1.845a.273.273,0,0,0,0-.387L9.777.24a.82.82,0,0,0-1.16,0L4.1,4.757a.273.273,0,0,0,.387.387L9,.627a.273.273,0,0,1,.387,0l1.044,1.044a1.368,1.368,0,0,0,1.9,1.9L13.374,4.61a.274.274,0,0,1,0,.387l-1.73,1.73h-1.2l.9-.9a.274.274,0,0,0,0-.387L8.559,2.657a.273.273,0,0,0-.387,0L4.1,6.727H.82a.821.821,0,0,0-.82.82V9.27a.273.273,0,0,0,.273.273.82.82,0,0,1,0,1.641A.273.273,0,0,0,0,11.458V13.18A.821.821,0,0,0,.82,14H13.18a.821.821,0,0,0,.82-.82V11.458a.273.273,0,0,0-.273-.273.82.82,0,0,1,0-1.641A.273.273,0,0,0,14,9.27V7.547A.821.821,0,0,0,13.18,6.727ZM8.366,3.237l2.4,2.4L9.672,6.727H8.589l.8-.8A.273.273,0,1,0,9,5.538L7.815,6.727H4.876Zm5.088,5.787a1.367,1.367,0,0,0,0,2.68V13.18a.274.274,0,0,1-.273.273H.82a.274.274,0,0,1-.273-.273V11.7a1.367,1.367,0,0,0,0-2.68V7.547A.274.274,0,0,1,.82,7.274H13.18a.274.274,0,0,1,.273.273Zm0,0" transform="translate(0 0)" fill="#173a6d"/>
  <path id="Path_186" data-name="Path 186" d="M196.969,345.465a.274.274,0,1,0-.194.08A.277.277,0,0,0,196.969,345.465Zm0,0" transform="translate(-191.128 -335.564)" fill="#173a6d"/>
  <path id="Path_187" data-name="Path 187" d="M295.968,345.465a.274.274,0,1,0-.194.08A.277.277,0,0,0,295.968,345.465Zm0,0" transform="translate(-287.421 -335.564)" fill="#173a6d"/>
  <path id="Path_188" data-name="Path 188" d="M246.469,345.465a.274.274,0,1,0-.194.08A.277.277,0,0,0,246.469,345.465Zm0,0" transform="translate(-239.274 -335.564)" fill="#173a6d"/>
  <path id="Path_189" data-name="Path 189" d="M147.274,345.545a.275.275,0,1,0-.194-.08A.277.277,0,0,0,147.274,345.545Zm0,0" transform="translate(-142.981 -335.564)" fill="#173a6d"/>
  <path id="Path_190" data-name="Path 190" d="M345.469,345.465a.274.274,0,1,0-.194.08A.277.277,0,0,0,345.469,345.465Zm0,0" transform="translate(-335.567 -335.564)" fill="#173a6d"/>
  <path id="Path_191" data-name="Path 191" d="M147.274,393.545h5.436a.275.275,0,1,0,0-.549h-5.436a.275.275,0,1,0,0,.549Zm0,0" transform="translate(-142.992 -382.251)" fill="#173a6d"/>
  <path id="Path_192" data-name="Path 192" d="M183.595,441a.275.275,0,1,0,.194.08A.277.277,0,0,0,183.595,441Zm0,0" transform="translate(-178.308 -428.945)" fill="#173a6d"/>
  <path id="Path_193" data-name="Path 193" d="M102.566,297H94.273a.274.274,0,0,0-.273.275v3.954a.274.274,0,0,0,.273.275h1.136a.275.275,0,0,0,0-.549h-.864v-3.4h7.748v3.4H97.865a.275.275,0,0,0,0,.549h4.7a.274.274,0,0,0,.273-.275v-3.954A.274.274,0,0,0,102.566,297Zm0,0" transform="translate(-91.419 -288.898)" fill="#173a6d"/>
</svg>
