<svg xmlns="http://www.w3.org/2000/svg" width="18.668" height="19.501" viewBox="0 0 18.668 19.501">
  <g id="Grupo_9199" data-name="Grupo 9199" transform="translate(0.25 0.25)">
    <g id="Grupo_1390" data-name="Grupo 1390" transform="translate(0 2.521)">
      <path id="Caminho_2658" data-name="Caminho 2658" d="M672.224,516.611A9.059,9.059,0,0,1,666.77,500.3a.825.825,0,1,1,1,1.316,7.433,7.433,0,1,0,8.914,0,.825.825,0,1,1,1-1.316,9.058,9.058,0,0,1-5.452,16.312Z" transform="translate(-663.14 -500.132)" fill="#ff6969" stroke="#ff6969" stroke-width="0.5"/>
    </g>
    <g id="Grupo_1391" data-name="Grupo 1391" transform="translate(8.258)">
      <path id="Caminho_2659" data-name="Caminho 2659" d="M668.966,508.515a.824.824,0,0,1-.826-.826v-8.258a.826.826,0,0,1,1.652,0v8.258A.825.825,0,0,1,668.966,508.515Z" transform="translate(-668.14 -498.605)" fill="#ff6969" stroke="#ff6969" stroke-width="0.5"/>
    </g>
  </g>
</svg>
