<svg xmlns="http://www.w3.org/2000/svg" xmlns:xlink="http://www.w3.org/1999/xlink" width="32.696" height="41.994" viewBox="0 0 32.696 41.994">
  <defs>
    <filter id="Uni達o_29" x="0" y="0" width="32.696" height="41.994" filterUnits="userSpaceOnUse">
      <feOffset dy="1" input="SourceAlpha"/>
      <feGaussianBlur stdDeviation="0.5" result="blur"/>
      <feFlood flood-opacity="0.161"/>
      <feComposite operator="in" in2="blur"/>
      <feComposite in="SourceGraphic"/>
    </filter>
  </defs>
  <g id="Grupo_9736" data-name="Grupo 9736" transform="translate(-381.35 -1671)">
    <g id="Grupo_9731" data-name="Grupo 9731" transform="translate(383.355 1672)">
      <g transform="matrix(1, 0, 0, 1, -2, -1)" filter="url(#Uni達o_29)">
        <path id="Uni達o_29-2" data-name="Uni達o 29" d="M13.127,37.368c-.642-.664-1.228-1.318-1.823-2-.764-.834-1.5-1.69-2.193-2.534v-.019a56.467,56.467,0,0,1-5.976-8.607A23.937,23.937,0,0,1,.189,16.444a13.488,13.488,0,0,1,.352-6.03A14.359,14.359,0,0,1,13.093.055c.033,0,.068-.012.109-.012L13.272,0h2l.306.055.655.111A14,14,0,0,1,24.4,4.231a14.168,14.168,0,0,1,3.388,14.623,31.507,31.507,0,0,1-3.375,7.107A63.871,63.871,0,0,1,19.392,32.9v.019c-.674.834-1.407,1.676-2.158,2.52-.588.64-1.159,1.282-1.788,1.925a1.285,1.285,0,0,1-.385.393,1.393,1.393,0,0,1-1.933-.393ZM11.6,15.263a2.677,2.677,0,1,0,2.676-2.674A2.7,2.7,0,0,0,11.6,15.263ZM20,4.253a11.365,11.365,0,0,1,5.589,7.623,11.135,11.135,0,0,1,.263,2.437,11.135,11.135,0,0,0-.263-2.437A11.365,11.365,0,0,0,20,4.253a11.085,11.085,0,0,0-5.624-1.534A11.654,11.654,0,0,0,2.741,14.275,11.654,11.654,0,0,1,14.376,2.719,11.085,11.085,0,0,1,20,4.253Z" transform="translate(2 1)" fill="#ff6a14" stroke="rgba(0,0,0,0)" stroke-miterlimit="10" stroke-width="1"/>
      </g>
      <ellipse id="Elipse_484" data-name="Elipse 484" cx="2.678" cy="2.678" rx="2.678" ry="2.678" transform="translate(11.593 12.591)" fill="#ff6a14"/>
    </g>
    <g id="Grupo_9732" data-name="Grupo 9732" transform="translate(386.861 1675.636)">
      <path id="Caminho_3843" data-name="Caminho 3843" d="M-737.727,1048.712c-.159.01-.158.008-.185.161-.035.2-.072.408-.108.612-.059.335-.116.671-.177,1.005-.011.06,0,.083.062.1.174.045.346.1.52.143.084.023.086.02.1-.073q.092-.55.183-1.1c.025-.151.049-.3.074-.458a.416.416,0,0,0-.115-.269A.42.42,0,0,0-737.727,1048.712Z" transform="translate(752.483 -1044.267)" fill="#fff"/>
      <path id="Caminho_3844" data-name="Caminho 3844" d="M-760.328,1048.6a1.047,1.047,0,0,0-.105,0,.48.48,0,0,0-.483.414c-.074.476-.142.952-.214,1.428a.074.074,0,0,0,.066.1c.167.04.334.084.5.127.111.028.111.028.129-.088l0-.023c.081-.6.161-1.2.245-1.8C-760.164,1048.577-760.161,1048.6-760.328,1048.6Z" transform="translate(768.045 -1044.189)" fill="#fff"/>
      <path id="Caminho_3845" data-name="Caminho 3845" d="M-729.539,1055.754l-.044.015-1.74.558c-.033.011-.07.013-.093.045a.1.1,0,0,0,.007.022c.165.27.331.539.494.811a.1.1,0,0,0,.11.045,2.583,2.583,0,0,0,.587-.1,1.129,1.129,0,0,0,.761-1.347C-729.465,1055.746-729.493,1055.738-729.539,1055.754Z" transform="translate(747.879 -1049.042)" fill="#fff"/>
      <path id="Caminho_3846" data-name="Caminho 3846" d="M-771.931,1034.888a10.7,10.7,0,0,0-10.7,10.7,10.7,10.7,0,0,0,10.7,10.7,10.7,10.7,0,0,0,10.7-10.7A10.7,10.7,0,0,0-771.931,1034.888Zm-6.2,15.992c-.012.148-.04.295-.056.443-.006.052-.022.075-.077.081-.12.013-.24.033-.387.054l.4-2.1.22.079c.041.015.057.051.077.085.078.131.159.26.234.394a.143.143,0,0,0,.128.083c.176.012.35.031.538.049a3.686,3.686,0,0,1-.128.366c-.014.038-.054.042-.086.054-.25.093-.5.188-.749.276A.139.139,0,0,0-778.132,1050.88Zm1.242-2.709a.177.177,0,0,1,.123.015c.24.124.481.245.72.368.074.038.075.04.033.112-.151.261-.3.52-.452.781a.112.112,0,0,1-.121.066c-.109-.009-.219-.013-.328-.019v-.009h-.352a.133.133,0,0,1-.119-.059c-.141-.193-.283-.384-.428-.573-.035-.046-.026-.072.011-.108.159-.156.317-.313.474-.471a.171.171,0,0,1,.1-.05C-777.114,1048.21-777,1048.193-776.89,1048.172Zm-.152-1.891c.1-.083.194-.171.289-.257a.079.079,0,0,1,.094-.022c.178.078.358.155.553.239l-.381.44c-.007.009-.016.021-.026.023a1.643,1.643,0,0,1-.267-.011c-.047,0-.065-.038-.088-.069-.06-.082-.118-.165-.179-.246C-777.076,1046.342-777.084,1046.316-777.043,1046.281Zm-.05.992c-.024.107-.048.214-.071.321a.115.115,0,0,1-.047.078l-.8.53-.021-.015c.026-.146.052-.292.079-.437.045-.242.094-.484.136-.727a.157.157,0,0,1,.115-.143,1.535,1.535,0,0,0,.183-.079.064.064,0,0,1,.083.018c.107.12.214.24.323.358A.1.1,0,0,1-777.093,1047.273Zm.116,5.417c-.157.006-.313.01-.469.02a.2.2,0,0,1-.168-.059c-.092-.09-.19-.175-.288-.26a.1.1,0,0,1-.041-.111c.061-.335.119-.67.177-1.005a.1.1,0,0,1,.077-.091q.516-.177,1.03-.36a.128.128,0,0,1,.13.019q.305.219.614.433a.128.128,0,0,1,.066.125c-.008.141-.013.281-.016.422a.207.207,0,0,1-.039.108c-.139.223-.279.444-.415.668a.137.137,0,0,1-.13.077c-.176,0-.352.012-.528.019Zm1.21,1.353-.442-.227-.312-.163c-.04-.021-.087-.033-.075-.1.016-.09.025-.108.107-.13s.188-.054.284-.071a.153.153,0,0,0,.132-.126c.036-.124.086-.244.122-.368.019-.065.048-.1.121-.1.038,0,.076-.021.129,0C-775.722,1053.177-775.744,1053.6-775.767,1054.042Zm.174-3.363a.043.043,0,0,1-.053,0c-.167-.094-.333-.191-.5-.283a.117.117,0,0,1-.073-.109.38.38,0,0,0-.013-.093.2.2,0,0,1,.034-.166q.257-.415.506-.833a.278.278,0,0,1,.184-.125C-775.538,1049.618-775.566,1050.151-775.593,1050.679Zm.063-2.812c-.07.063-.136.13-.2.2a.075.075,0,0,1-.1.015c-.141-.069-.281-.138-.424-.2a.114.114,0,0,1-.071-.1c-.021-.143-.043-.286-.067-.429a.086.086,0,0,1,.026-.084q.059-.057.116-.117a.115.115,0,0,1,.084-.034c.1,0,.2-.012.285-.018s.16-.03.215.008.047.127.065.195c.038.144.072.288.111.432A.118.118,0,0,1-775.53,1047.867Zm-.045-4.576c-.18-.084-.18-.084-.061-.248a1.063,1.063,0,0,1,.866-.428,1.061,1.061,0,0,1,.347.07c.072.029.073.032.044.1l0,.011c-.027.052-.035.122-.083.151s-.1-.022-.153-.033a.771.771,0,0,0-.816.331C-775.491,1043.33-775.491,1043.33-775.575,1043.291Zm.827.3c-.121-.007-.236.038-.357.036a.116.116,0,0,1,0-.1.394.394,0,0,1,.412-.278.387.387,0,0,1,.349.354,3.884,3.884,0,0,1,0,.422.242.242,0,0,1-.236.231.246.246,0,0,1-.25-.229.535.535,0,0,1,.049-.319A.149.149,0,0,0-774.748,1043.589Zm3.646,10.981c-.1.077-.2.156-.292.236a.177.177,0,0,1-.107.041c-.074,0-.148.01-.222.012s-.085,0-.072-.086c.022-.143.046-.285.069-.429q.059-.37.12-.74a.23.23,0,0,1,.019-.042l.247.13a.1.1,0,0,1,.045.065c.076.239.15.478.227.715A.077.077,0,0,1-771.1,1054.57Zm2.863-6.074h0c0,.16,0,.321,0,.481,0,.079-.006.083-.08.06-.168-.051-.335-.106-.5-.158a.146.146,0,0,1-.1-.088c-.069-.161-.142-.321-.217-.48a.111.111,0,0,1,.006-.12c.009-.013.015-.028.022-.041.043-.074.061-.172.128-.22a1.52,1.52,0,0,1,.241-.083.38.38,0,0,1,.422.052.151.151,0,0,1,.08.139C-768.242,1048.191-768.239,1048.344-768.239,1048.5Zm-.7,1.827c-.168.106-.336.215-.5.324a.111.111,0,0,1-.089.016c-.214-.045-.428-.09-.643-.131a.138.138,0,0,1-.1-.072c-.122-.2-.244-.4-.37-.6-.033-.053-.02-.08.021-.117.209-.188.418-.377.623-.57a.133.133,0,0,1,.148-.03c.27.078.541.155.813.225a.11.11,0,0,1,.1.119c.012.246.028.492.042.724A.09.09,0,0,1-768.941,1050.323Zm0-3.039c-.006.02-.028.025-.046.034-.149.068-.3.135-.447.206a.061.061,0,0,1-.089-.02c-.1-.137-.208-.274-.313-.41a.07.07,0,0,1,0-.1c.065-.093.128-.187.192-.281a.089.089,0,0,1,.064-.045q.186-.026.371-.055a.066.066,0,0,1,.071.028l.256.336a.2.2,0,0,1,.019.042C-768.889,1047.112-768.913,1047.2-768.939,1047.284Zm-.894.946c.017.03.041.06.023.1a.812.812,0,0,1-.078.17c-.006.007-.022.007-.033.009a.178.178,0,0,1-.047,0,.444.444,0,0,0-.427.181c-.125.139-.266.266-.4.4a.2.2,0,0,1-.093.069c.012-.086.022-.166.035-.244.068-.421.136-.842.2-1.263.023-.148.022-.15.17-.148.078,0,.166-.027.23.013s.084.129.123.2C-770.027,1047.881-769.93,1048.056-769.833,1048.23Zm-.708,2.876a.168.168,0,0,0,.137.092c.186.024.37.058.556.084.059.009.07.029.052.084-.029.085-.052.172-.073.26a.136.136,0,0,1-.074.1l-1.434.751a.243.243,0,0,1-.048.008c.035-.225.069-.437.1-.649q.1-.637.2-1.274c.009-.057.017-.1.091-.112a.1.1,0,0,1,.122.056C-770.786,1050.706-770.66,1050.9-770.541,1051.106Zm1.881,2.425q-.415.356-.823.718a.219.219,0,0,1-.158.061c-.129,0-.258,0-.387,0v.014c-.125,0-.25.008-.375.016a.1.1,0,0,1-.108-.066q-.174-.34-.353-.677a.166.166,0,0,1-.014-.135c.057-.187.114-.374.167-.562a.146.146,0,0,1,.088-.1q.576-.265,1.149-.536a.112.112,0,0,1,.136.019q.3.25.611.5a.148.148,0,0,1,.058.108c.018.167.04.334.064.5A.142.142,0,0,1-768.661,1053.531Zm.32-1.351c-.025.011-.052.018-.076.031a.088.088,0,0,1-.107-.014q-.327-.267-.658-.53a.1.1,0,0,1-.039-.1c.014-.093.025-.186.033-.279a.138.138,0,0,1,.08-.107c.177-.115.352-.233.531-.346a.137.137,0,0,0,.074-.143c-.012-.168-.016-.336-.027-.5a.092.092,0,0,1,.066-.106c.071-.029.141-.063.23-.1v.131q0,.956,0,1.913C-768.233,1052.159-768.225,1052.131-768.34,1052.18Zm.058-8.923c-.047.074-.05.076-.127.037-.174-.087-.211-.045-.067-.247a1.037,1.037,0,0,1,1.2-.365c.029.011.073.011.077.061-.032.066-.062.134-.1.2-.018.032-.048.011-.073,0a.753.753,0,0,0-.462-.021A.759.759,0,0,0-768.282,1043.256Zm.724-.013a.39.39,0,0,1,.408.368c.006.133,0,.266,0,.4a.245.245,0,0,1-.239.241.246.246,0,0,1-.248-.233.467.467,0,0,1,.04-.262l.009-.018a.369.369,0,0,0,.048-.135l-.015-.015c-.121,0-.238.038-.359.037A.362.362,0,0,1-767.558,1043.243Zm-.3,10.676c-.015-2.488-.016-4.968-.02-7.472l1.238.621a3.531,3.531,0,0,1,.028-.436c.015-.089.031-.177.042-.267a.081.081,0,0,1,.072-.078,1.857,1.857,0,0,1,.249-.058c-.024.14-.048.269-.067.4a1.755,1.755,0,0,0,.006.618,1.109,1.109,0,0,0,1.03.862,1.1,1.1,0,0,0,1.113-.833,1.62,1.62,0,0,0-.035-.88,2.738,2.738,0,0,0-.283-.656q-1.194-2.03-2.389-4.061a.16.16,0,0,0-.168-.088c-.67.022-1.339.039-2.008.058-.075,0-.149.006-.223.011-.047,0-.062-.013-.052-.062q.063-.329.12-.659c.066-.386.14-.77.184-1.159a.471.471,0,0,0-.556-.54c-.046.006-.056.034-.062.071q-.06.347-.121.694l-.339,1.92c-.016.093-.031.185-.049.277s-.02.089-.107.07l-.859-.193-1.546-.344a.125.125,0,0,0-.078-.006,1.526,1.526,0,0,0,.045.4,1.565,1.565,0,0,0,1.321,1.278,3.621,3.621,0,0,0,1.18.021c.077-.011.151-.032.229-.049,0,.046-.026.07-.044.1-.134.2-.267.405-.4.606a.439.439,0,0,0-.072.183q-.262,1.641-.526,3.281-.241,1.5-.484,2.99t-.479,2.991q-.1.615-.2,1.229c-.018.108-.02.107-.133.1a8.357,8.357,0,0,1-1.237-.13,9.057,9.057,0,0,1-1.738-.484.512.512,0,0,0-.055-.021c-.055-.014-.072-.047-.068-.1.014-.242.023-.485.035-.728.011-.2.025-.406.035-.61q.053-1.044.1-2.089.045-.886.092-1.771.059-1.15.119-2.3a.481.481,0,0,1,.026-.156l1.123.461a3.213,3.213,0,0,1,.057-.7c.012-.072.036-.113.112-.124s.136-.033.213-.054a1.749,1.749,0,0,1-.047.282,2.529,2.529,0,0,0-.041.526,1.1,1.1,0,0,0,1.042,1.048,1.089,1.089,0,0,0,1.124-.848,1.589,1.589,0,0,0-.057-.9,2.849,2.849,0,0,0-.309-.658q-1.194-1.92-2.387-3.842a.156.156,0,0,0-.17-.082c-.336.025-.672.044-1.008.064-.367.022-.735.041-1.1.061a.467.467,0,0,0-.047,0c-.055.009-.068-.02-.064-.068s0-.1.006-.153q.046-.927.093-1.854c0-.078.012-.156.015-.234s0-.09-.092-.089a.843.843,0,0,0-.265.045.48.48,0,0,0-.349.452c-.038.492-.067.985-.094,1.477q-.024.446-.05.892c-.012.2-.013.2-.2.126-.321-.124-.643-.247-.963-.373a.3.3,0,0,0-.193-.012c-.444.109-.89.214-1.335.319a.318.318,0,0,1-.045.013c-.059.006-.069.038-.052.09a1.354,1.354,0,0,0,.2.385,1.59,1.59,0,0,0,1,.612,2.934,2.934,0,0,0,.924.013,8.1,8.1,0,0,0,.854-.146c.016.043-.015.063-.031.086-.147.222-.293.445-.443.665a.475.475,0,0,0-.074.183q-.334,1.777-.668,3.554-.323,1.707-.648,3.414c-.026.137-.045.275-.083.414a9.214,9.214,0,0,1-1.367-9.666,9.263,9.263,0,0,1,9.769-5.442,9.266,9.266,0,0,1,7.934,8.193A9.247,9.247,0,0,1-767.855,1053.92Zm2.764-7.578a.483.483,0,0,1,.531.342.479.479,0,0,1-.253.574Zm-7.135-.221a.5.5,0,0,1,.429.377.5.5,0,0,1-.185.52.09.09,0,0,1-.063.028.132.132,0,0,1-.033-.072c-.078-.253-.154-.508-.232-.761C-772.346,1046.1-772.313,1046.109-772.227,1046.121Z" transform="translate(782.635 -1034.888)" fill="#fff"/>
    </g>
  </g>
</svg>
