<svg xmlns="http://www.w3.org/2000/svg" width="33.994" height="30.317" viewBox="0 0 33.994 30.317">
  <g id="Grupo_9859" data-name="Grupo 9859" transform="translate(-27.949 -680.8)">
    <g id="Grupo_9858" data-name="Grupo 9858" transform="matrix(0.995, -0.105, 0.105, 0.995, -80.254, 11.009)">
      <path id="Caminho_6763" data-name="Caminho 6763" d="M11647.762,690.488c-.665,3.43.425,4.005,0,9.1s-1.325,8.171,0,9.529,5.3-1.265,9.889-.681,7.82,1.319,8.8,0-.318-2.419-.585-8.109a50.184,50.184,0,0,1,.585-9.844c.079-1.632-4.383-.595-7.132,0s-11.024-1.782-11.556,0" transform="translate(-11610.067 -2.124)" fill="#acacac" stroke="#acacac" stroke-width="1"/>
      <path id="Caminho_6764" data-name="Caminho 6764" d="M11651.485,691.516c.057-4.973-1.337-8.858,4.528-9.081s5.605,8.232,4.933,9.6" transform="translate(-11609.882 -2.431)" fill="none" stroke="#acacac" stroke-width="2"/>
      <rect id="Ret창ngulo_4381" data-name="Ret창ngulo 4381" width="6.681" height="6.681" rx="3.34" transform="translate(43.681 693.361)" fill="#f2f2f2"/>
    </g>
    <g id="Grupo_9864" data-name="Grupo 9864" transform="matrix(0.998, 0.07, -0.07, 0.998, 48.741, -2.221)">
      <path id="Caminho_6765" data-name="Caminho 6765" d="M11664.086,695.594c-1.069,1.933.844,15.615,1.522,15.92a18.609,18.609,0,0,0,6.135,0c1.152-.371,3.837-15.235,2.418-16.41S11665.155,693.66,11664.086,695.594Z" transform="translate(-11613 -3.02)" fill="#acacac"/>
      <rect id="Ret창ngulo_4380" data-name="Ret창ngulo 4380" width="2" height="10" rx="1" transform="matrix(0.985, 0.174, -0.174, 0.985, 57.885, 684.805)" fill="#acacac"/>
    </g>
  </g>
</svg>
