<svg xmlns="http://www.w3.org/2000/svg" width="45.75" height="28.695" viewBox="0 0 45.75 28.695">
  <g id="Grupo_9862" data-name="Grupo 9862" transform="translate(-190 -679.305)">
    <g id="Caminho_6767" data-name="Caminho 6767" transform="translate(219.121 679.305) rotate(20)" fill="#acacac">
      <path d="M 8.318277359008789 22.49593544006348 C 6.51397705078125 22.49593544006348 4.820507049560547 22.41084480285645 3.549807071685791 22.25634384155273 C 1.542606949806213 22.01228523254395 1.252786993980408 21.68483543395996 1.241426944732666 21.6710147857666 C 1.212486982345581 21.62940406799316 0.9397270083427429 21.16337394714355 0.7245069742202759 18.25186538696289 C 0.5878869891166687 16.40361404418945 0.5083670020103455 14.02501487731934 0.5006169676780701 11.55421447753906 C 0.4927470088005066 9.046545028686523 0.560247004032135 6.659594535827637 0.6906870007514954 4.833064556121826 C 0.8962469696998596 1.954764723777771 1.185327053070068 1.420074701309204 1.2411869764328 1.342114806175232 C 1.251516938209534 1.3277747631073 1.516937017440796 0.988034725189209 3.488476991653442 0.7409247756004333 C 4.746006965637207 0.5833147764205933 6.401436805725098 0.500004768371582 8.275787353515625 0.500004768371582 C 10.25956726074219 0.500004768371582 12.34650707244873 0.5969247221946716 14.0015172958374 0.7659147381782532 C 16.24637603759766 0.9951411485671997 16.84104537963867 1.261285543441772 16.96770286560059 1.334919691085815 C 17.17757034301758 1.992284178733826 17.28551483154297 5.974109172821045 17.09728622436523 11.49141502380371 C 17.01083755493164 14.02526473999023 16.87519645690918 16.41372489929199 16.71534729003906 18.21682548522949 C 16.46908569335938 20.99478912353516 16.24363136291504 21.55706596374512 16.18784332275391 21.65740203857422 C 16.13161659240723 21.70334243774414 15.69187259674072 22.00176620483398 13.53406715393066 22.24186515808105 C 12.06159687042236 22.40570449829102 10.20926666259766 22.49593544006348 8.318277359008789 22.49593544006348 Z" stroke="none"/>
      <path d="M 8.27580738067627 0.9999942779541016 C 6.559547424316406 0.9999942779541016 5.017267227172852 1.071104049682617 3.815696716308594 1.205635070800781 C 2.307165145874023 1.374536514282227 1.780949592590332 1.594169616699219 1.634405136108398 1.672372817993164 C 1.368267059326172 2.332435607910156 0.9831027984619141 5.456249237060547 1.000507354736328 11.51907444000244 C 1.007316589355469 13.89086437225342 1.081127166748047 16.19585418701172 1.208347320556641 18.00943374633789 C 1.369735717773438 20.31025123596191 1.56318473815918 21.09832191467285 1.642053604125977 21.33639526367188 C 1.81771183013916 21.42023658752441 2.374359130859375 21.62497901916504 3.850577354431152 21.78784561157227 C 5.084477424621582 21.92397499084473 6.629377365112305 21.99593544006348 8.318277359008789 21.99593544006348 C 10.09185695648193 21.99593544006348 11.84969711303711 21.91483497619629 13.26797676086426 21.76758575439453 C 14.90883827209473 21.59722709655762 15.56174945831299 21.39567375183105 15.78735256195068 21.30440521240234 C 16.01904678344727 20.53450584411621 16.39396286010742 17.46929168701172 16.59849739074707 11.44714450836182 C 16.7655086517334 6.529872894287109 16.69573783874512 2.77093505859375 16.53127670288086 1.694835662841797 C 16.22391128540039 1.594793319702148 15.4660701751709 1.409502029418945 13.75676727294922 1.244033813476562 C 12.15464687347412 1.088945388793945 10.156907081604 0.9999942779541016 8.27580738067627 0.9999942779541016 M 8.275811195373535 -1.9073486328125e-06 C 12.50757598876953 -1.9073486328125e-06 17.02061653137207 0.4300346374511719 17.38931655883789 1.050804138183594 C 18.06746673583984 2.192554473876953 17.53728675842285 20.69191551208496 16.58600616455078 21.96161460876465 C 15.63472747802734 23.23132514953613 1.884634971618652 23.44590377807617 0.8346672058105469 21.96168518066406 C -0.2153034210205078 20.47746467590332 -0.3394527435302734 2.689544677734375 0.8347568511962891 1.050884246826172 C 1.370548248291016 0.3031654357910156 4.724321365356445 -1.9073486328125e-06 8.275811195373535 -1.9073486328125e-06 Z" stroke="none" fill="#acacac"/>
    </g>
    <rect id="Retângulo_4385" data-name="Retângulo 4385" width="12.198" height="1.743" rx="0.871" transform="translate(219.627 686.344) rotate(20)" fill="#f2f2f2"/>
    <rect id="Retângulo_4386" data-name="Retângulo 4386" width="12.198" height="1.743" rx="0.871" transform="translate(218.435 689.619) rotate(20)" fill="#f2f2f2"/>
    <rect id="Retângulo_4387" data-name="Retângulo 4387" width="12.198" height="1.743" rx="0.871" transform="translate(217.242 692.894) rotate(20)" fill="#f2f2f2"/>
    <g id="Grupo_9861" data-name="Grupo 9861" transform="translate(192.072 686.693)">
      <g id="Retângulo_4382" data-name="Retângulo 4382" transform="translate(-0.073 9.307)" fill="#acacac" stroke="#f2f2f2" stroke-width="2">
        <rect width="22" height="3" rx="1.5" stroke="none"/>
        <rect x="-1" y="-1" width="24" height="5" rx="2.5" fill="none"/>
      </g>
      <g id="Retângulo_4383" data-name="Retângulo 4383" transform="translate(-0.073 14.307)" fill="#acacac" stroke="#f2f2f2" stroke-width="2">
        <path d="M1,0H21a1,1,0,0,1,1,1V2a3,3,0,0,1-3,3H3A3,3,0,0,1,0,2V1A1,1,0,0,1,1,0Z" stroke="none"/>
        <path d="M1-1H21a2,2,0,0,1,2,2V2a4,4,0,0,1-4,4H3A4,4,0,0,1-1,2V1A2,2,0,0,1,1-1Z" fill="none"/>
      </g>
      <g id="Retângulo_4384" data-name="Retângulo 4384" transform="translate(-0.073 0.307)" fill="#acacac" stroke="#f2f2f2" stroke-width="2">
        <path d="M6.087,0h9.826A6.087,6.087,0,0,1,22,6.087v0A.913.913,0,0,1,21.087,7H.913A.913.913,0,0,1,0,6.087v0A6.087,6.087,0,0,1,6.087,0Z" stroke="none"/>
        <path d="M6.56-1h8.88A7.56,7.56,0,0,1,23,6.56v0A1.44,1.44,0,0,1,21.56,8H.44A1.44,1.44,0,0,1-1,6.56v0A7.56,7.56,0,0,1,6.56-1Z" fill="none"/>
      </g>
    </g>
  </g>
</svg>
