<svg xmlns="http://www.w3.org/2000/svg" width="26.32" height="22.842" viewBox="0 0 26.32 22.842">
  <g id="Grupo_9863" data-name="Grupo 9863" transform="translate(-273 -689)">
    <path id="Subtração_3" data-name="Subtração 3" d="M4.079,14.536H2a2,2,0,0,1-2-2V2A2,2,0,0,1,2,0H20.842a2,2,0,0,1,2,2V12.535a2,2,0,0,1-2,2H9.789V7.45a2,2,0,0,0-2-2H6.079a2,2,0,0,0-2,2v7.085ZM15.053,5.45a2,2,0,0,0-2,2V8.9a2,2,0,0,0,2,2h2.526a2,2,0,0,0,2-2V7.45a2,2,0,0,0-2-2Z" transform="translate(275.077 697.306)" fill="#acacac"/>
    <path id="Subtração_5" data-name="Subtração 5" d="M25.723,6.855h-.014c-.6-.007-2.007-.011-4.17-.011H19.487L17.607.054C18.5.018,19.3,0,19.971,0a7.541,7.541,0,0,1,3.02.33,11.615,11.615,0,0,1,2.127,2.823c.908,1.551,1.333,2.763,1.167,3.326A.52.52,0,0,1,25.723,6.855Zm-12.562,0H13c-.559,0-2.488-.006-4.681-.008L10.063.119c1.729.095,3.088.21,3.1.211.042,0,1.051-.088,2.423-.172l1.852,6.689Zm-12.55,0H.6a.52.52,0,0,1-.562-.377C-.131,5.916.294,4.7,1.2,3.153A11.587,11.587,0,0,1,3.328.33,7.561,7.561,0,0,1,6.351,0c.521,0,1.111.011,1.755.032L6.338,6.845H4.78C2.618,6.844,1.215,6.848.611,6.855Z" transform="translate(273 689)" fill="#acacac"/>
  </g>
</svg>
