<svg xmlns="http://www.w3.org/2000/svg" width="55.872" height="32.476" viewBox="0 0 55.872 32.476">
  <g id="Grupo_9862" data-name="Grupo 9862" transform="translate(-190 -675.591)">
    <g id="Caminho_6767" data-name="Caminho 6767" transform="translate(226.217 675.591) rotate(20)" fill="#acacac">
      <path d="M 9.832233428955078 26.44753265380859 C 7.665223598480225 26.44753265380859 5.638163566589355 26.3449821472168 4.124463558197021 26.15878295898438 C 1.716723561286926 25.86260223388672 1.405653476715088 25.4620418548584 1.393593549728394 25.44514274597168 C 1.33293354511261 25.36013221740723 1.017613530158997 24.7658634185791 0.7664535045623779 21.40580177307129 C 0.6044934988021851 19.23906326293945 0.510143518447876 16.44907188415527 0.500763475894928 13.54976272583008 C 0.4912534952163696 10.60743236541748 0.5710034966468811 7.806042671203613 0.7253335118293762 5.661642551422119 C 0.9637634754180908 2.34858250617981 1.295833468437195 1.657312512397766 1.391923546791077 1.524352550506592 C 1.424693465232849 1.47902250289917 1.77932345867157 1.073082566261292 4.109343528747559 0.7833325266838074 C 5.599883556365967 0.5979725122451782 7.561453342437744 0.5000025629997253 9.782013893127441 0.5000025629997253 C 12.15310382843018 0.5000025629997253 14.64202308654785 0.6156525611877441 16.61059379577637 0.8173025250434875 C 19.38752746582031 1.101754784584045 20.02148056030273 1.434365630149841 20.13227272033691 1.508817791938782 C 20.18859672546387 1.668112754821777 20.35762023925781 2.404162406921387 20.40422439575195 5.550252437591553 C 20.43691444396973 7.75751256942749 20.39981269836426 10.5727424621582 20.29973411560059 13.47735214233398 C 20.19670295715332 16.4679126739502 20.0349235534668 19.28158187866211 19.84421348571777 21.40004348754883 C 19.54195213317871 24.75766944885254 19.26480102539062 25.34385871887207 19.20676612854004 25.43249893188477 C 19.17242431640625 25.46689796447754 18.74075126647949 25.84300804138184 16.06510353088379 26.14285278320312 C 14.31191349029541 26.33933258056641 12.09836387634277 26.44753265380859 9.832233428955078 26.44753265380859 Z" stroke="none"/>
      <path d="M 9.782013893127441 1.000001907348633 C 7.708943367004395 1.000001907348633 5.853053092956543 1.086612701416016 4.414983749389648 1.250473022460938 C 2.48362922668457 1.470541000366211 1.911643981933594 1.762380599975586 1.786991119384766 1.841880798339844 C 1.706108093261719 2.019792556762695 1.424509048461914 2.831417083740234 1.215892791748047 5.812362670898438 C 1.068914413452148 7.912591934204102 0.9924526214599609 10.64026260375977 1.000593185424805 13.49291229248047 C 1.008613586425781 16.30291366577148 1.097312927246094 19.02846145629883 1.250364303588867 21.16750335693359 C 1.456512451171875 24.04870223999023 1.707149505615234 24.90567207336426 1.791215896606445 25.12156295776367 C 1.947973251342773 25.2100887298584 2.562978744506836 25.48236274719238 4.461313247680664 25.69489288330078 C 5.91650390625 25.85781288146973 7.823923110961914 25.94753265380859 9.832213401794434 25.94753265380859 C 11.96424388885498 25.94753265380859 14.07142353057861 25.84981155395508 15.76560401916504 25.67238235473633 C 17.86225318908691 25.45279502868652 18.59671974182129 25.18931198120117 18.81136894226074 25.08930206298828 C 19.0883960723877 24.29800796508789 19.5515022277832 20.70661163330078 19.80114364624023 13.42776298522949 C 19.89743423461914 10.62033271789551 19.93485260009766 7.882242202758789 19.90651321411133 5.717863082885742 C 19.87368774414062 3.210926055908203 19.76264572143555 2.223562240600586 19.69945907592773 1.857973098754883 C 19.38404083251953 1.742916107177734 18.51070022583008 1.503961563110352 16.33828353881836 1.2926025390625 C 14.42709350585938 1.106653213500977 12.03743362426758 1.000001907348633 9.782013893127441 1.000001907348633 M 9.782013893127441 0 C 14.78398132324219 0 20.11845970153809 0.503936767578125 20.55427360534668 1.231382369995117 C 21.35583305358887 2.56932258605957 20.72916412353516 24.24758148193359 19.60474395751953 25.73547172546387 C 18.48032379150391 27.22336196899414 2.227655410766602 27.47482299804688 0.9865837097167969 25.73556327819824 C -0.254486083984375 23.99629211425781 -0.4012260437011719 3.151712417602539 0.9866943359375 1.231462478637695 C 1.619998931884766 0.3552589416503906 5.584135055541992 0 9.782013893127441 0 Z" stroke="none" fill="#acacac"/>
    </g>
    <rect id="Retângulo_4385" data-name="Retângulo 4385" width="12.198" height="1.743" rx="0.871" transform="translate(227.693 683.85) rotate(20)" fill="#f2f2f2"/>
    <path id="Caminho_7419" data-name="Caminho 7419" d="M.924-.019,12.015-.25a.857.857,0,0,1,.9.859.95.95,0,0,1-.943.9L.886,1.737a.857.857,0,0,1-.9-.859A.95.95,0,0,1,.924-.019Z" transform="translate(225.712 688.925) rotate(20)" fill="#f2f2f2"/>
    <rect id="Retângulo_4387" data-name="Retângulo 4387" width="12.198" height="1.743" rx="0.871" transform="translate(224.313 693.999) rotate(20)" fill="#f2f2f2"/>
    <g id="Grupo_9861" data-name="Grupo 9861" transform="translate(192 682.745)">
      <g id="Retângulo_4382" data-name="Retângulo 4382" transform="translate(0 11.393)" fill="#acacac" stroke="#f2f2f2" stroke-width="2">
        <rect width="31.255" height="3" rx="1.5" stroke="none"/>
        <rect x="-1" y="-1" width="33.255" height="5" rx="2.5" fill="none"/>
      </g>
      <g id="Retângulo_4383" data-name="Retângulo 4383" transform="translate(0 18.255)" fill="#acacac" stroke="#f2f2f2" stroke-width="2">
        <path d="M1,0H30.255a1,1,0,0,1,1,1V2a3,3,0,0,1-3,3H3A3,3,0,0,1,0,2V1A1,1,0,0,1,1,0Z" stroke="none"/>
        <path d="M1-1H30.255a2,2,0,0,1,2,2V2a4,4,0,0,1-4,4H3A4,4,0,0,1-1,2V1A2,2,0,0,1,1-1Z" fill="none"/>
      </g>
      <g id="Retângulo_4384" data-name="Retângulo 4384" fill="#acacac" stroke="#f2f2f2" stroke-width="2">
        <path d="M6.087,0H25.168a6.087,6.087,0,0,1,6.087,6.087v0A.913.913,0,0,1,30.342,7H.913A.913.913,0,0,1,0,6.087v0A6.087,6.087,0,0,1,6.087,0Z" stroke="none"/>
        <path d="M6.56-1H24.695a7.56,7.56,0,0,1,7.56,7.56v0A1.44,1.44,0,0,1,30.815,8H.44A1.44,1.44,0,0,1-1,6.56v0A7.56,7.56,0,0,1,6.56-1Z" fill="none"/>
      </g>
    </g>
  </g>
</svg>
