<svg xmlns="http://www.w3.org/2000/svg" width="33.654" height="29.093" viewBox="0 0 33.654 29.093">
  <g id="Grupo_9860" data-name="Grupo 9860" transform="translate(-441.238 -525.909) rotate(-30)">
    <path id="Subtração_2" data-name="Subtração 2" d="M15.425,15.737c-6.749,0-14.355-.262-14.878-.687a4.907,4.907,0,0,1-.484-2.4c-.025-.386-.047-.8-.062-1.236a3.645,3.645,0,0,0,.547.041,3.6,3.6,0,1,0-.44-7.168A16.829,16.829,0,0,1,.547.66C.8.115,5.6,0,9.582,0,16.854,0,26.487.394,27.53.66c.282.159.431,1.345.454,3.626a3.689,3.689,0,0,0-.454-.029,3.6,3.6,0,1,0,0,7.193,3.461,3.461,0,0,0,.616-.052c0,.013,0,.025,0,.037v.012l0,.019c.092,1.645.021,2.884-.621,3.585C27.062,15.557,20.97,15.737,15.425,15.737Z" transform="translate(112.391 689.212)" fill="#acacac" stroke="#acacac" stroke-width="1"/>
    <text id="_" data-name="%" transform="translate(126.148 702.659)" fill="#f2f2f2" font-size="14" font-family="SegoeUI, Segoe UI"><tspan x="-5.729" y="0">%</tspan></text>
  </g>
</svg>
